<svg xmlns="http://www.w3.org/2000/svg" viewBox="0 0 474.71 846.12">
  <title>glyph-arm-up-alt</title>
  <g id="Layer_2" data-name="Layer 2">
    <g id="Page_3" data-name="Page 3">
      <path d="M264.23,94.66c-14.53-8.21-25.67-9.15-32.71-2.12C226.24,97.82,221,96.77,221,98.88s3.16,5.27,3.16,5.27a44.12,44.12,0,0,1-5.27,10.55c-3.17,4.22-1.06,10.55,3.16,13.72s12.66,8.44,12.66,19,0,16.88-11.6,16.88c-16.88,0-45.37-3.17-80.19-28.49s-57-59.08-65.41-77S69,25,60.6,18.69C54.09,13.81,43.19,4.54,38.54.55A2.28,2.28,0,0,0,35,1.26l-.09.2A2.26,2.26,0,0,0,35.29,4L46.88,16.58s-11.6,1.06-26.37-4.22-19-3.16-20,0-2.11,16.88,19,23.21,35.87,12.66,35.87,21.1S47.94,137.91,68,162.18s42.21,41.15,87.57,59.08,64.36,61.2,65.42,92.85-11.61,70.69-31.65,99.17-53.81,67.53-65.42,97.07-13.71,49.59-13.71,96,6.33,86.51,11.6,135S125,797.32,126,810s1.66,29.54-38.21,35.87h85.69s.53-26.91,5.8-70.16S187.73,707.12,193,666s10.55-67.52,19-109.73,17.94-66.47,17.94-66.47,11.6,90.74,36.92,137.16,47.48,69.64,93.9,126.61,51.7,66.47,48.54,79.13-26.12,13.45-26.12,13.45h91.53s-38-62-58-107.35S369.2,636.43,352.32,592.12s-29.54-82.3-38-115-17.94-72.8-17.94-94.95,3.17-60.14,11.61-77,11.61-26.38,15.83-26.38,14.77,22.16,22.15,68.58,9.5,68.58,12.66,95,1.06,51.69,3.17,58c1.64,4.93,8.42,15.64,11.32,20.12a2.28,2.28,0,0,0,3.28.57l.6-.45a2.26,2.26,0,0,0,.58-3c-2.44-3.95-7.94-13.24-6.29-14.07,2.11-1.05,10.55,11.61,15.83,23.21s27.43,14.77,20.05-4.22-13.72-21.1-19-28.49-10.46-19-5.27-38C395.58,409.59,403,386.38,404,343.12s-11.6-101.28-54.86-130.83-78.08-34.81-78.08-57,4.22-24.27,5.28-33.76S276.36,101.51,264.23,94.66Z" fill="#2e5ca1"/>
    </g>
  </g>
</svg>
