<svg xmlns="http://www.w3.org/2000/svg" viewBox="0 0 487.44 201.25">
  <title>1-in-6</title>
  <g id="Layer_2" data-name="Layer 2">
    <g id="Page_2" data-name="Page 2">
      <g id="page">
        <g>
          <path d="M109.47,27.33c4-2.18,3.29-5.18,3.24-7.09-1-3-4.25-8.38-4.06-12.33.37-7.68,4.51-8.24,6.73-7.8A7.83,7.83,0,0,1,118.68,2c3.33,3.83-.08,15,0,17.75a7.66,7.66,0,0,0,2.85,6.47C124.41,29,129.07,30,132.19,33s6.66,17.31,7.63,29.69c.24,3.1,0,22.46,0,27.34,0,2.12.84,4.55,1.32,8.23.23,1.73-2.23,6.93-3.13,6.23-1.27-1,.68-6.26-.88-6.71-.93-.28-.49,1.74-.72,2.86s-1,1-1,.61a26.35,26.35,0,0,1,0-6.4c.1-.56.33-1,.38-1.42.61-5.2-2.91-22.49-3.22-24.35C131.31,61,129.9,48.68,129,42.88c-2.11,5.36-2.77,15.32-3,21-.34,9.46,4.85,15.48,6.67,25.48.49,2.75.57,8.18.68,14.73.1,5.76-.92,28.95-1.55,35.27-.36,3.68-2.86,22.34-3.88,42.32,0,1.07.07,3,.1,4,.08,2.86,6.09,7.91,8.34,9.43a2.36,2.36,0,0,1,1.12,2.92c-.29.74-2.44.82-3.06.79-4.48-.2-5.19-3.25-10.74-4.37a2.27,2.27,0,0,1-2.09-2c-.13-10.57-4.06-94.25-4.06-94.25s-11.44,85.78-12,89.41c-.3,1.47.52,3.37,0,5.47-.49,1.82-2.25,2.39-2.8,2.7-3.49,2-2.42,3.11-5.16,4.87-1.31.84-4.22.85-5,0s-1.4-2.59,1.78-4.91c1.22-.88,3.38-4.05,4.17-6.86a33,33,0,0,0,.93-7.15c.51-8.42.29-22.18,1.21-43.05.08-4.05.06-37.87,1.91-48.29,1.6-9,7.36-13.47,7-26.19-.18-7.67-2.09-15.08-4.54-19.08-.4,3.32-1.9,16.46-2.54,22.07-.18,1.57-3.78,19.57-3.75,26.52,0,2.41-1.65,6-1.73,6.36s-.87.38-.92-.74.83-2.88-.19-2.86c-.71,0-1.27,6-1.77,6.37-1,.68-2.4-3.76-1.51-6.33,1-2.88,1.75-4.13,2-5.27,1.17-4.54-.11-17.39-.07-21.82,0,0,.2-6.43.55-10.47C96,48.3,98.33,37.72,100,34.44,101.9,30.82,107.87,28.22,109.47,27.33Z" fill="#587abc"/>
          <path d="M298,27.33c-3.95-2.18-3.29-5.18-3.23-7.09,1-3,4.24-8.38,4-12.33-.37-7.68-4.5-8.24-6.73-7.8A7.89,7.89,0,0,0,288.81,2c-3.33,3.83.08,15,0,17.75A7.63,7.63,0,0,1,286,26.21C283.08,29,278.43,30,275.3,33s-6.66,17.31-7.63,29.69c-.24,3.1,0,22.46,0,27.34,0,2.12-.83,4.55-1.32,8.23-.23,1.73,2.23,6.93,3.13,6.23,1.28-1-.68-6.26.88-6.71.93-.28.49,1.74.72,2.86s1,1,1,.61a25.31,25.31,0,0,0-.05-6.4c-.1-.56-.32-1-.37-1.42-.62-5.2,2.91-22.49,3.21-24.35,1.33-8.09,2.75-20.44,3.63-26.24,2.11,5.36,2.77,15.32,3,21,.35,9.46-4.85,15.48-6.66,25.48-.5,2.75-.58,8.18-.69,14.73-.09,5.76.92,28.95,1.55,35.27.37,3.68,2.86,22.34,3.88,42.32,0,1.07-.07,3-.1,4-.08,2.86-6.09,7.91-8.34,9.43A2.37,2.37,0,0,0,270,198c.29.74,2.44.82,3.06.79,4.48-.2,5.19-3.25,10.75-4.37a2.27,2.27,0,0,0,2.08-2c.14-10.57,4.06-94.25,4.06-94.25s11.44,85.78,12,89.41c.3,1.47-.52,3.37,0,5.47.49,1.82,2.26,2.39,2.81,2.7,3.49,2,2.41,3.11,5.15,4.87,1.32.84,4.23.85,5.05,0s1.4-2.59-1.78-4.91c-1.22-.88-3.38-4.05-4.17-6.86a33,33,0,0,1-.93-7.15c-.51-8.42-.28-22.18-1.2-43.05-.08-4.05-.07-37.87-1.91-48.29-1.6-9-7.37-13.47-7.06-26.19.19-7.67,2.1-15.08,4.54-19.08.41,3.32,1.9,16.46,2.54,22.07.18,1.57,3.78,19.57,3.75,26.52,0,2.41,1.65,6,1.74,6.36s.86.38.91-.74-.83-2.88.19-2.86c.71,0,1.28,6,1.77,6.37,1,.68,2.4-3.76,1.51-6.33-1-2.88-1.75-4.13-2-5.27-1.18-4.54.11-17.39.06-21.82,0,0-.2-6.43-.55-10.47-.91-10.66-3.21-21.24-4.91-24.52C305.59,30.82,299.63,28.22,298,27.33Z" fill="#587abc"/>
          <path d="M224.36,35.1c-3.75-3.57-5.49-3.87-9.24-6.71s-4.44-5.56-4.58-8.33c0-3.89,1.08-7.57,1.38-9.87.75-5.76-.2-8.6-2.95-9.65a7.85,7.85,0,0,0-3.68-.5c-2.51.24-5.93,2.29-5.26,8.59a18.82,18.82,0,0,0,2.25,7.79,9.92,9.92,0,0,1,1.09,3.43c.16,3.63-1.4,5.27-4.77,7.78-2.67,2-5.89,4-8.58,5.8-3.94,2.59-6.12,6-8.29,13-1.81,5.91-1.82,14.44-.94,22,1.17,10,2.5,19.69,2.15,25.4,0,2.42-1.84,4.32-2.64,9-.33,1.95,1,6.11,3.21,5.86.64-.08-.09-5.11.11-6.51.11-.76,1.55-1.51,1.44-.11,0,.48-.35,2.86-.37,3.24.07,1.3.8,1.46,1.08.66a43.71,43.71,0,0,0,2.6-10.51L189.53,70c0-.74.66-23.79,1.29-29.57,1.6,3.94,4,25.5,4,35.29,0,11.78-8.44,34.33-10.32,47.1-2,13.32.23,48.51-1.23,64.52a15.79,15.79,0,0,1-5.29,10c-2.79,2.47-1.52,4.92,3.32,3.17,2-.71,1.94-2.39,7.26-4.88,3.7-1.74,3.19-2.58,3.51-4.19,1.48-7.54,13.08-98.2,13.08-98.2s.45,22.69,1.48,51.85c.75,21.52,2,38,2.4,48.74a3,3,0,0,0,2,2.73c3.45,1.22,7.39,3.8,9,4.3,4.9,1.53,5.89-1.49,3.89-3s-4.94-2.84-5.43-3.87c-3.1-6.48,4.41-48.12,3.9-60.54-.75-18.17-7.29-51.32-7.12-60.63.06-3,4-32.55,4.94-35.06,1.06,8.91,1,56.75,1,56.75-.19,3.68-.38,4-.43,5.76a36.64,36.64,0,0,0,.93,5.9c.2.93,1.17.54,1.44-.26,0,.33.06-2.49.06-2.85s1.19-1,1.19.46c0,2-.7,6,.31,5.88,1.3-.16,3-3,2.66-7-.25-3.15-1-5.25-1.22-7.32-.31-5.19,2.25-12.32,3.63-30C230.67,56.49,229.42,40,224.36,35.1Z" fill="#587abc"/>
          <path d="M54.31,45.22C53,39.56,49.67,34.62,46.17,32.3c-2.17-1.44-4.35-2.87-7.11-4.54-2.24-1.36-4.46-2.66-4.94-5.51-.6-2.22-.72-3.14.09-7.1.59-2.82,2.44-10,.19-12.89A5.89,5.89,0,0,0,28.69.08c-2.16.3-5.92,2.76-5.53,8.75s2.75,8.5,3,11c.19,4.25-.16,6-2.38,7.29-4.17,2.44-7.4,2.91-11.57,6.32C9.08,36,6.34,41.61,3.56,49.45,1.62,55.38-1.1,61,.46,66.88,3,76.39,11.6,83.51,12.88,87.28c.73,2.53-.41,5.35-1.06,8.18-.73,3.22.12,4.67,1.72,6-2.19,8.58-2.85,18-3.3,24.76-.93,14-.07,59.66-.61,64.05-.39,3.28-4.44,5.55-5,5.94-1.28.83-3.43,2.33-2.93,3.47s1.27.95,2.86.82c3.79-.3,5.72-2.25,11-3.38,3.3-.72,3.23-4.63,3.39-5.69,1.48-9.88,4.11-26.82,5.89-46.19,2.13-23.16,4.22-45.51,4.45-45.5,0,0,2.27,21,3.16,42.36,1.11,26.44,2.92,43.69,4.08,51.65.21,1.48,2.53,3.12,3.84,3.58,4.32,1.53,5.77,3.47,9,3.85,2.3.27,4.2-1.3,1.93-2.88-2.6-1.82-5.39-4.6-5.66-5.61-3-11.45,3.67-53.85,1.78-71.65C45.05,99.27,41.16,82,40.23,74,39,63.75,45.08,42.14,45.08,42.14S44.43,63,44.75,68.78c.38,6.87.25,27.28.25,27.28a23.84,23.84,0,0,0,.72,5c.47,1.72,1.25,3.71,1.34,3.93.3.66,1.21.4,1.1-.57s-.57-2.45-.6-3.41c0-.51.81-.86,1-.16s.77,5.9.9,6.34c.18.66,1.62.83,2.13-.25a13.6,13.6,0,0,0,.71-7.51c-.62-2.67-1.23-3.79-1.75-6.63s1.46-7.7,3.53-21C55.52,62.58,55.38,49.89,54.31,45.22ZM17.54,84.93c-1.13-3.11-4.75-12.33-6-20.32-.2-1.27,4.12-18.94,4.12-18.94C18.56,56,18.55,56,18.89,74.55A49.31,49.31,0,0,1,17.54,84.93Z" fill="#fff"/>
          <path d="M455.76,27.33c3.95-2.18,3.28-5.18,3.23-7.09-1.05-3-4.24-8.38-4.05-12.33.36-7.68,4.5-8.24,6.73-7.8A7.8,7.8,0,0,1,465,2c3.33,3.83-.07,15,0,17.75a7.67,7.67,0,0,0,2.86,6.47C470.69,29,475.35,30,478.48,33s6.65,17.31,7.62,29.69c.25,3.1,0,22.46,0,27.34,0,2.12.84,4.55,1.33,8.23.23,1.73-2.24,6.93-3.14,6.23-1.27-1,.69-6.26-.87-6.71-.93-.28-.49,1.74-.72,2.86s-1,1-1,.61a25.31,25.31,0,0,1,0-6.4c.1-.56.32-1,.37-1.42.61-5.2-2.91-22.49-3.22-24.35-1.32-8.09-2.74-20.44-3.62-26.24-2.11,5.36-2.77,15.32-3,21-.35,9.46,4.85,15.48,6.66,25.48.5,2.75.57,8.18.68,14.73.1,5.76-.91,28.95-1.54,35.27-.37,3.68-2.87,22.34-3.89,42.32,0,1.07.07,3,.1,4,.09,2.86,6.1,7.91,8.35,9.43A2.37,2.37,0,0,1,483.8,198c-.3.74-2.44.82-3.06.79-4.48-.2-5.2-3.25-10.75-4.37a2.27,2.27,0,0,1-2.09-2c-.13-10.57-4-94.25-4-94.25s-11.44,85.78-12,89.41c-.31,1.47.52,3.37-.05,5.47-.49,1.82-2.25,2.39-2.8,2.7-3.49,2-2.42,3.11-5.15,4.87-1.32.84-4.23.85-5.05,0s-1.41-2.59,1.78-4.91a15.67,15.67,0,0,0,4.16-6.86,32.29,32.29,0,0,0,.94-7.15c.51-8.42.28-22.18,1.2-43.05.08-4.05.07-37.87,1.91-48.29,1.6-9,7.37-13.47,7.06-26.19-.19-7.67-2.1-15.08-4.54-19.08-.41,3.32-1.91,16.46-2.54,22.07-.18,1.57-3.79,19.57-3.76,26.52,0,2.41-1.64,6-1.73,6.36s-.86.38-.91-.74.82-2.88-.19-2.86c-.71,0-1.28,6-1.78,6.37-1,.68-2.39-3.76-1.5-6.33,1-2.88,1.75-4.13,2-5.27,1.17-4.54-.11-17.39-.07-21.82,0,0,.21-6.43.56-10.47.91-10.66,3.21-21.24,4.91-24.52C448.19,30.82,454.15,28.22,455.76,27.33Z" fill="#587abc"/>
          <path d="M400.6,45.22c-1.29-5.66-4.64-10.6-8.15-12.92-2.16-1.44-4.34-2.87-7.1-4.54-2.24-1.36-4.46-2.66-5-5.51-.6-2.22-.72-3.14.1-7.1.58-2.82,2.43-10,.18-12.89A5.89,5.89,0,0,0,375,.08c-2.16.3-5.92,2.76-5.52,8.75s2.74,8.5,3,11c.2,4.25-.16,6-2.38,7.29-4.16,2.44-7.4,2.91-11.57,6.32-3.11,2.55-5.84,8.21-8.63,16.05-1.93,5.93-4.65,11.56-3.09,17.43,2.52,9.51,11.13,16.63,12.41,20.4.73,2.53-.41,5.35-1.05,8.18-.74,3.22.11,4.67,1.71,6-2.19,8.58-2.84,18-3.29,24.76-.94,14-.08,59.66-.61,64.05-.4,3.28-4.44,5.55-5,5.94-1.27.83-3.42,2.33-2.93,3.47s1.27.95,2.86.82c3.79-.3,5.72-2.25,11-3.38,3.29-.72,3.22-4.63,3.38-5.69,1.48-9.88,4.12-26.82,5.9-46.19,2.12-23.16,4.21-45.51,4.45-45.5,0,0,2.26,21,3.16,42.36,1.11,26.44,2.91,43.69,4.07,51.65.22,1.48,2.53,3.12,3.85,3.58,4.32,1.53,5.76,3.47,9,3.85,2.3.27,4.2-1.3,1.94-2.88-2.61-1.82-5.4-4.6-5.66-5.61-3-11.45,3.67-53.85,1.78-71.65C391.33,99.27,387.44,82,386.51,74c-1.19-10.24,4.86-31.85,4.86-31.85S390.71,63,391,68.78c.39,6.87.25,27.28.25,27.28a24,24,0,0,0,.73,5,39.64,39.64,0,0,0,1.34,3.93c.3.66,1.21.4,1.09-.57s-.57-2.45-.59-3.41c0-.51.8-.86,1-.16s.78,5.9.9,6.34c.18.66,1.63.83,2.13-.25a13.51,13.51,0,0,0,.72-7.51c-.63-2.67-1.24-3.79-1.76-6.63s1.46-7.7,3.53-21C401.81,62.58,401.66,49.89,400.6,45.22ZM363.83,84.93c-1.13-3.11-4.76-12.33-6-20.32-.19-1.27,4.13-18.94,4.13-18.94C364.85,56,364.84,56,365.17,74.55A49.21,49.21,0,0,1,363.83,84.93Z" fill="#587abc"/>
        </g>
      </g>
    </g>
  </g>
</svg>
