<svg xmlns="http://www.w3.org/2000/svg" viewBox="0 0 241.79 262.68">
  <title>glyph-head</title>
  <g id="Layer_2" data-name="Layer 2">
    <g id="Page_2" data-name="Page 2">
      <g id="page">
        <path d="M224.93,95.82c-3.48-9.22-12.77-37.29-13.65-41a83.87,83.87,0,0,0-12.77-28.9C186.49,8.77,169.91,0,158,0H97.41C75.76,0,57.92,3.15,43.78,9.36,15.89,21.62,2.45,45.8,2.82,81.29L0,262.68H163.23V227c0-10.49,3-20.08,16.12-20.08h24.87a19.07,19.07,0,0,0,19.2-19.27V150c0-5.95,1.22-7,2.38-7.65,2.29-1.23,8.85-1.9,11.4-2.88,3.39-1.29,4-3.15,4.56-6.44S232.31,115.34,224.93,95.82Z" fill="#00b2e3"/>
      </g>
    </g>
  </g>
</svg>
