<svg xmlns="http://www.w3.org/2000/svg" viewBox="0 0 99.63 127.76">
  <title>menu-logo</title>
  <g id="Layer_2" data-name="Layer 2">
    <g id="Page_1" data-name="Page 1">
      <g id="Layer_5" data-name="Layer 5">
        <g>
          <path d="M93.13,43.54c-.55-3.22,3.36-4.52,5.24-7.5s-.64-9-2.29-9c-2.61,0-3.31,5.45-5.33,7.79-.79.92-2,1.7-2.44.9a17.9,17.9,0,0,1-.9-2.08c-.56-1.9-2.06-1.86-1.81-.24a93.55,93.55,0,0,1,.77,12.85C86,58.75,88.32,66.82,79.67,75.7,75.33,80.15,60,85.5,53,85.89c-5.5.31-6.6-3-7.27-6.53-.36-1.71.41-3.3.79-5.12.49-2.36.5-5.15-1.7-9.7-3.92-8.12-8.73-6.23-11.26-5.2a6.48,6.48,0,0,0-2.94,3.92c-1.5,5.76,5.58,12.63,7.25,15.95.9,1.56,1.75,3.26,1.46,4.59-.38,1.73-2.73,2.43-4.82.49-8.19-7.6-19.24-16.24-15.32-29.9,3-10.45,9.83-25,10.62-26.5,1-2,1.36-5.46,1.53-7.29.21-2.32-1.47-2.53-1.78-.81,0,0-1,3.72-1.88,2.8-.59-.62-.54-2.52-.52-3.76.06-2.91.68-5.68-1.08-5.8-2-.12-4.83,2.25-4.62,5.36s1.39,7.17.89,9.21c-.79,3.22-7.57,8.1-17.5,20.93A22.73,22.73,0,0,0,.45,67.11c2,10.1,19.71,27.3,27.22,36.34,6.62,7.74,11.27,16.11,13.52,24.31h18c-1-9.78.49-20.25,5.64-24.16,8.58-6.48,22-9.9,25.07-11.52,13.78-7.27,9.65-17.51,7-31.71C96,55.62,93.51,45.79,93.13,43.54Z" fill="#2e5ca1"/>
          <g>
            <g>
              <path d="M65.88.48A16.41,16.41,0,0,0,64.17.06L64,0,61.83,16l2.26-1.35v-.07L66,.51Z" fill="#fff"/>
              <path d="M67.58,1.08,67.4,1,65.68,13.67l2.24-1.34v-.08l1.4-10.33-.09,0C68.7,1.58,68.15,1.32,67.58,1.08Z" fill="#fff"/>
              <path d="M72.51,4.19A19.91,19.91,0,0,0,70.89,2.9l-.21-.14-1.17,8.61L71.79,10V9.94l.77-5.7Z" fill="#fff"/>
            </g>
            <g>
              <path d="M51,2.85l-.11.08c-.48.34-1,.7-1.39,1.08l-.12.11,11,11.65.35-2.61,0-.06Z" fill="#fff"/>
              <path d="M54.16,1.11l-.1,0A16.64,16.64,0,0,0,52.42,2l-.17.1L61,11.3l.36-2.59,0-.06Z" fill="#fff"/>
              <path d="M61.92,4.16,58,0H57.9a17.28,17.28,0,0,0-2,.48l-.24.07,6,6.3L62,4.22Z" fill="#fff"/>
            </g>
            <g>
              <path d="M78.13,14.27a15,15,0,0,0-.41-1.79l-.06-.2L66.77,18.82l2.43.93.06,0,8.89-5.33Z" fill="#fff"/>
              <path d="M77.13,10.75a15.53,15.53,0,0,0-.75-1.6L76.31,9,62.57,17.23l2.46.93.06,0,12.09-7.25Z" fill="#fff"/>
              <path d="M78.37,16.21l0-.25-7.41,4.45,2.47.94.06,0,4.91-2.95v-.08c0-.3,0-.6,0-.9S78.39,16.6,78.37,16.21Z" fill="#fff"/>
            </g>
            <g>
              <path d="M54.28,28.77l0,.07,1.76,5.47.08,0a19.44,19.44,0,0,0,2,.44l.25,0-2.66-8.27Z" fill="#fff"/>
              <path d="M60.68,19.05l-1.45,2.2,0,.07L63.58,34.8l.13,0c.59-.1,1.16-.22,1.72-.37l.16,0Z" fill="#fff"/>
              <path d="M56.77,25l0,.07L60,35h.92c.34,0,.68,0,1,0h.2L58.21,22.8Z" fill="#fff"/>
            </g>
            <g>
              <path d="M47.94,19.26l0,.06-3.15,4.8,0,.08a17.78,17.78,0,0,0,.91,1.86l.12.22L50.57,19Z" fill="#fff"/>
              <path d="M56.86,18.47l0,.06L49.06,30.34l.09.09c.44.4.89.77,1.36,1.12l.13.1,8.83-13.41Z" fill="#fff"/>
              <path d="M52.42,18.86l0,.07-5.71,8.68.06.09a17.69,17.69,0,0,0,1.15,1.44l.13.15,7-10.66Z" fill="#fff"/>
            </g>
            <g>
              <path d="M57.53,14.87h-.07l-14,1.25v.13c0,.36,0,.74,0,1.11,0,.22,0,.44,0,.66v.16l15.92-1.41Z" fill="#fff"/>
              <path d="M51.36,8.33h-.08l-5.69.51,0,.07a17,17,0,0,0-.88,1.88l-.09.23,8.6-.77Z" fill="#fff"/>
              <path d="M54.46,11.62h-.07l-10.31.92,0,.1a17.62,17.62,0,0,0-.4,1.81l0,.19,12.64-1.12Z" fill="#fff"/>
            </g>
            <g>
              <path d="M62.06,18.6l.81,2.51.07,0,13.16,5,.06-.11c.29-.52.55-1,.79-1.59l.06-.14Z" fill="#fff"/>
              <path d="M64.24,25.38l.07,0L74,29.09l.07-.08c.4-.47.78-1,1.13-1.45l.12-.16L63.44,22.89Z" fill="#fff"/>
              <path d="M65.62,29.7l.07,0,5.34,2,.07,0a16.9,16.9,0,0,0,1.6-1.31l.19-.17-8.08-3.07Z" fill="#fff"/>
            </g>
          </g>
        </g>
      </g>
    </g>
  </g>
</svg>
