<?xml version="1.0" encoding="utf-8"?>
<!-- Generator: Adobe Illustrator 23.0.1, SVG Export Plug-In . SVG Version: 6.00 Build 0)  -->
<svg version="1.1" id="Layer_1" xmlns="http://www.w3.org/2000/svg" xmlns:xlink="http://www.w3.org/1999/xlink" x="0px" y="0px"
	 viewBox="0 0 1280 632.3" style="enable-background:new 0 0 1280 632.3;" xml:space="preserve">
<style type="text/css">
	.st0{clip-path:url(#SVGID_2_);}
	.st1{fill:#002E6D;}
</style>
<title>confidance-bg</title>
<g>
	<g id="Page_1">
		<g id="BKGD">
			<g>
				<defs>
					<rect id="SVGID_1_" y="0" width="1280" height="632.8"/>
				</defs>
				<clipPath id="SVGID_2_">
					<use xlink:href="#SVGID_1_"  style="overflow:visible;"/>
				</clipPath>
				<g class="st0">
					<path class="st1" d="M1280,890.3V1418c0,0-264.3-22.4-377.2,17.4s-441.4,184.2-672.3,166.8s-549.2-115.3-549.2-678.7
						S-85.2,238.1,53.3,195.8s313.1-89.6,384.9-129.4s166.8-127,192.5,0c19.3,105.9,94.9,27.4,115.5,7.5c9.8-9.5,51.2-4.4,58.9,35.4
						c0,0,10.3-24.3,36.5-24.3s61.6,45.4,91.2,45.4s24-31,124.3-31s110.6,188.1,110.6,258.9s45.3,92.9,112.2,92.9L1280,890.3z"/>
				</g>
			</g>
		</g>
	</g>
</g>
</svg>
