<svg xmlns="http://www.w3.org/2000/svg" viewBox="0 0 160.63 286.3">
  <title>glyph-arm-up</title>
  <g id="Layer_2" data-name="Layer 2">
    <g id="Page_2" data-name="Page 2">
      <g id="page">
        <path d="M71.22,32c4.92-2.78,8.69-3.1,11.07-.72,1.78,1.79,3.57,1.43,3.57,2.15s-1.07,1.78-1.07,1.78a14.87,14.87,0,0,0,1.78,3.57c1.07,1.43.36,3.57-1.07,4.64s-4.28,2.86-4.28,6.43,0,5.71,3.92,5.71c5.72,0,15.36-1.07,27.14-9.64a74.1,74.1,0,0,0,22.13-26.06c2.86-6.07,2.86-11.42,5.71-13.57,2.2-1.65,5.89-4.78,7.47-6.13a.77.77,0,0,1,1.19.24l0,.06a.79.79,0,0,1-.12.87l-3.93,4.25a23,23,0,0,0,8.93-1.43c5-1.78,6.42-1.07,6.78,0s.72,5.71-6.42,7.86-12.14,4.28-12.14,7.14,2.5,27.49-4.29,35.7S123.34,68.8,108,74.87s-21.77,20.7-22.13,31.41,3.93,23.92,10.71,33.56,18.21,22.85,22.13,32.85,4.64,16.78,4.64,32.48-2.14,29.28-3.92,45.7-1.07,18.92-1.43,23.2-.56,10,12.93,12.14h-29s-.17-9.1-2-23.74-2.86-23.2-4.64-37.13-3.57-22.84-6.43-37.12a146,146,0,0,0-6.07-22.49s-3.92,30.7-12.49,46.41S54.26,235.7,38.56,255s-17.5,22.49-16.43,26.77S31,286.3,31,286.3H0s12.85-21,19.64-36.32,16.06-34.63,21.77-49.63a374.13,374.13,0,0,0,12.85-38.91c2.86-11.07,6.07-24.63,6.07-32.13S59.26,109,56.41,103.25s-3.93-8.92-5.36-8.92-5,7.49-7.5,23.2-3.21,23.21-4.28,32.13-.36,17.49-1.07,19.64a46.27,46.27,0,0,1-3.83,6.8.77.77,0,0,1-1.11.2l-.21-.15a.78.78,0,0,1-.19-1c.83-1.34,2.69-4.48,2.13-4.76-.72-.36-3.57,3.92-5.36,7.85s-9.28,5-6.78-1.43,4.64-7.14,6.42-9.64,3.54-6.41,1.79-12.85c-4.28-15.71-6.78-23.56-7.14-38.2s3.93-34.27,18.56-44.27S68.9,60.05,68.9,52.56s-1.43-8.22-1.78-11.43S67.12,34.35,71.22,32Z" fill="#76bc21"/>
      </g>
    </g>
  </g>
</svg>
