<svg xmlns="http://www.w3.org/2000/svg" viewBox="0 0 673.5 1525.29">
  <title>glyph-arm-left-up</title>
  <g id="Layer_2" data-name="Layer 2">
    <g id="Page_1" data-name="Page 1">
      <g id="BKGD">
        <path d="M431.74,196.29c-23.15-16.27-41.72-19.5-54.57-8.35-9.63,8.36-18.33,5.77-18.64,9.42s4.53,9.57,4.53,9.57-4.48,10.64-10.42,17.48-3.33,18.08,3.28,24.16,20,16.41,18.43,34.64-2.5,29.17-22,27.5c-28.32-2.43-75.65-12-130.31-60.77s-86.84-110.31-98.34-142.52-9.16-59.56-22.38-71.72C91.14,26.33,74.23,8.74,67,1.17a3.77,3.77,0,0,0-6,.73l-.19.32a4,4,0,0,0,.23,4.49L78.64,30.08S59,30.23,35,19s-31.4-8.2-33.64-2.88S-4.67,45,29.8,59,88.11,86,86.86,100.59s-24.44,139.33,5.6,184.16,64.71,77.18,138.17,114.71,98.92,115,96,169.87-30,120.5-67.81,166.84-100.3,109-124.15,158.34-30.36,83.73-37.24,164-2.21,150.42-.55,235.06-3,97.09-3.08,119.13-1.61,51.29-69.43,56.49l143.77,12.34s4.87-46.43,20.14-120.42,24.32-117.31,39.27-187.66,27.72-115.18,48.13-186.9,39.95-112.29,39.95-112.29,6,158.48,41.63,242.35S426.6,1243.75,496,1348.89s76.89,122.31,69.7,143.74-45.8,19.49-45.8,19.49l153.56,13.17S619,1412.7,592.05,1331.41s-64.49-183.7-86.24-262.71-37.37-146.48-46.68-204.22-19.3-128.39-16-166.68S457.34,594.32,474,566.36s23.38-43.91,30.46-43.31,21.5,40.42,27,121.71,5.77,119.89,7.17,165.93-5.89,89.5-3.29,100.74c2,8.77,11.81,28.24,16,36.4a3.77,3.77,0,0,0,5.41,1.48l1.08-.7a4,4,0,0,0,1.41-5.13c-3.51-7.17-11.36-24-8.46-25.21,3.7-1.52,16,21.57,23.11,42.39s43.84,29.47,34.26-4.41-19.88-38.44-27.64-52S565.8,870,577.32,837.88c28.13-78.4,44-117.45,52.14-192.06S625,469.1,556.8,411.82,431,340.42,434.25,302.12s10.68-41.33,13.86-57.58S451.08,209.89,431.74,196.29Z" fill="#2e5ca1"/>
      </g>
    </g>
  </g>
</svg>
