<?xml version="1.0" encoding="utf-8"?>
<!-- Generator: Adobe Illustrator 23.0.1, SVG Export Plug-In . SVG Version: 6.00 Build 0)  -->
<svg version="1.1" id="Layer_1" xmlns="http://www.w3.org/2000/svg" xmlns:xlink="http://www.w3.org/1999/xlink" x="0px" y="0px"
	 viewBox="0 0 315.7 487" style="enable-background:new 0 0 315.7 487;" xml:space="preserve">
<style type="text/css">
	.st0{clip-path:url(#SVGID_2_);}
	.st1{fill:#2E5CA1;}
</style>
<title>index-hero</title>
<g>
	<g id="Content">
		<g>
			<defs>
				<rect id="SVGID_1_" x="-774.8" y="-27.8" width="1200" height="515.6"/>
			</defs>
			<clipPath id="SVGID_2_">
				<use xlink:href="#SVGID_1_"  style="overflow:visible;"/>
			</clipPath>
			<g class="st0">
				<path class="st1" d="M202.4,92c-10.8-7.6-19.5-9.1-25.6-3.9c-4.5,3.9-8.6,2.7-8.7,4.4s2.1,4.5,2.1,4.5c-1.3,2.9-2.9,5.7-4.9,8.2
					c-2.8,3.2-1.6,8.5,1.5,11.3s9.4,7.7,8.6,16.2s-1.2,13.7-10.3,12.9c-13.3-1.1-35.5-5.6-61.1-28.5S63.4,65.5,58,50.4
					s-4.3-27.9-10.5-33.6C42.7,12.3,34.8,4.1,31.4,0.6c-0.7-0.7-1.8-0.7-2.5-0.1c-0.1,0.1-0.2,0.3-0.3,0.4L28.5,1
					c-0.4,0.7-0.4,1.5,0.1,2.1l8.2,11c0,0-9.2,0.1-20.5-5.2S1.7,5.1,0.6,7.6S-2.2,21.1,14,27.7s27.3,12.7,26.7,19.5
					s-11.5,65.3,2.6,86.3s30.3,36.1,64.8,53.7s46.4,53.9,45,79.6s-14,56.5-31.8,78.2s-47,51.1-58.2,74.2s-14.2,39.2-17.5,76.8
					s-1,70.5-0.3,110.2s-1.4,45.5-1.5,55.8s-0.8,24-32.5,26.5l67.4,5.8c0,0,2.3-21.8,9.4-56.4s11.4-55,18.4-88s13-54,22.6-87.6
					s18.7-52.6,18.7-52.6s2.8,74.3,19.5,113.6s32.5,59.6,65.1,108.9c32.6,49.3,36,57.3,32.7,67.4s-21.5,9.1-21.5,9.1l72,6.2
					c0,0-25.6-52.7-38.2-90.8s-30.2-86.1-40.4-123.1s-17.5-68.7-21.9-95.7s-9-60.2-7.5-78.1s6.7-48.5,14.5-61.6s11-20.6,14.3-20.3
					s10.1,18.9,12.7,57s2.7,56.2,3.3,77.8s-2.8,42-1.5,47.2c1,4.1,5.5,13.2,7.5,17.1c0.4,0.9,1.5,1.2,2.4,0.8c0.1,0,0.1-0.1,0.2-0.1
					l0.5-0.3c0.8-0.5,1.1-1.6,0.6-2.4c-1.6-3.4-5.3-11.3-4-11.8c1.7-0.7,7.5,10.1,10.8,19.9s20.6,13.8,16.1-2.1s-9.3-18-13-24.4
					s-6.9-16.1-1.5-31.1c13.2-36.8,20.6-55.1,24.4-90s-2.1-82.8-34.1-109.7s-59-33.5-57.5-51.4s5-19.4,6.5-27S211.4,98.4,202.4,92z"
					/>
			</g>
		</g>
	</g>
</g>
</svg>
